<?xml version="1.0" encoding="UTF-8"?>
<svg width="18px" height="18px" viewBox="0 0 18 18" version="1.1" xmlns="http://www.w3.org/2000/svg" xmlns:xlink="http://www.w3.org/1999/xlink">
    <!-- Generator: Sketch 63.1 (92452) - https://sketch.com -->
    <title>Report</title>
    <desc>Created with Sketch.</desc>
    <g id="Page-1" stroke="none" stroke-width="1" fill="none" fill-rule="evenodd">
        <g id="Artboard" transform="translate(-64.000000, -313.000000)">
            <g id="Report" transform="translate(61.000000, 310.000000)">
                <polygon id="Path" points="0 0 24 0 24 24 0 24"></polygon>
                <path d="M15.73,3 L8.27,3 L3,8.27 L3,15.73 L8.27,21 L15.73,21 L21,15.73 L21,8.27 L15.73,3 Z M12,17.3 C11.28,17.3 10.7,16.72 10.7,16 C10.7,15.28 11.28,14.7 12,14.7 C12.72,14.7 13.3,15.28 13.3,16 C13.3,16.72 12.72,17.3 12,17.3 Z M13,13 L11,13 L11,7 L13,7 L13,13 Z" id="Shape" fill="#E33636" fill-rule="nonzero"></path>
            </g>
        </g>
    </g>
</svg>