<svg xmlns="http://www.w3.org/2000/svg" width="24.07" height="24" viewBox="0 0 24.07 24">
  <path id="serach" d="M23.32,24a.745.745,0,0,1-.539-.235l-7.265-7.312A9.54,9.54,0,0,1,12.7,18.14a9.155,9.155,0,0,1-3.328.609,9.174,9.174,0,0,1-3.657-.738,9.65,9.65,0,0,1-2.988-2A9.285,9.285,0,0,1,0,9.375,9.285,9.285,0,0,1,2.731,2.742a9.65,9.65,0,0,1,2.988-2,9.368,9.368,0,0,1,7.289,0,9.65,9.65,0,0,1,2.988,2,9.4,9.4,0,0,1,2.016,2.976,9.174,9.174,0,0,1,.738,3.657,9.064,9.064,0,0,1-.586,3.245,9.748,9.748,0,0,1-1.594,2.754l7.289,7.336a.763.763,0,0,1,0,1.055A.742.742,0,0,1,23.32,24ZM9.375,1.477A7.744,7.744,0,0,0,6.293,2.1,7.9,7.9,0,0,0,3.785,3.8,8.172,8.172,0,0,0,2.1,6.3a7.658,7.658,0,0,0-.621,3.071,7.656,7.656,0,0,0,.621,3.07,8.188,8.188,0,0,0,1.688,2.508,7.907,7.907,0,0,0,2.507,1.7,7.9,7.9,0,0,0,6.141,0,7.909,7.909,0,0,0,2.508-1.7,8.22,8.22,0,0,0,1.687-2.508,7.656,7.656,0,0,0,.621-3.07A7.658,7.658,0,0,0,16.629,6.3,8.2,8.2,0,0,0,14.942,3.8a7.9,7.9,0,0,0-2.508-1.7A7.684,7.684,0,0,0,9.375,1.477Z" fill="#767676"/>
</svg>
