<svg id="storefront" xmlns="http://www.w3.org/2000/svg" width="24" height="24" viewBox="0 0 24 24">
  <rect id="Rectangle" width="24" height="24" fill="none"/>
  <path id="Shape" d="M16.995,18h-14a2,2,0,0,1-2-2V9.06c-.036-.04-.075-.077-.113-.113A1.289,1.289,0,0,1,.715,8.77a3.392,3.392,0,0,1-.62-2.88L1.145,1.52A1.953,1.953,0,0,1,3.045,0h13.89a1.971,1.971,0,0,1,1.91,1.52l1.05,4.369a3.37,3.37,0,0,1-.62,2.891,1.889,1.889,0,0,1-.186.191c-.032.03-.064.06-.094.089V16A2,2,0,0,1,16.995,18Zm-14-8.03V16H17V9.97l-.081.013a.845.845,0,0,1-.149.017,3.123,3.123,0,0,1-2.239-.95,3.163,3.163,0,0,1-2.24.95A3.285,3.285,0,0,1,10,9.07a3.211,3.211,0,0,1-4.54-.02,3.128,3.128,0,0,1-2.24.95.845.845,0,0,1-.149-.017ZM16.9,1.989h0L14.974,2l.58,4.86A1.258,1.258,0,0,0,16.764,8a1.165,1.165,0,0,0,.941-.47,1.349,1.349,0,0,0,.25-1.17L16.9,1.99ZM10.994,2V6.69A1.269,1.269,0,0,0,12.215,8a1.2,1.2,0,0,0,.95-.41,1.342,1.342,0,0,0,.33-1.07L12.955,2ZM7.034,2l-.55,4.52a1.422,1.422,0,0,0,.33,1.07A1.209,1.209,0,0,0,7.7,8a1.286,1.286,0,0,0,1.29-1.31V2H7.034ZM3.045,2,2.035,6.36A1.32,1.32,0,0,0,2.3,7.53a1.15,1.15,0,0,0,.93.47,1.258,1.258,0,0,0,1.21-1.14L5.015,2Z" transform="translate(2.005 3)" fill="#84ba63"/>
</svg>
